<?xml version="1.0" standalone="no"?>
<!DOCTYPE svg PUBLIC "-//W3C//DTD SVG 20010904//EN"
 "http://www.w3.org/TR/2001/REC-SVG-20010904/DTD/svg10.dtd">
<svg version="1.0" xmlns="http://www.w3.org/2000/svg"
 width="512.000000pt" height="512.000000pt" viewBox="0 0 512.000000 512.000000"
 preserveAspectRatio="xMidYMid meet">
<metadata>
Created by potrace 1.15, written by Peter Selinger 2001-2017
</metadata>
<g transform="translate(0.000000,512.000000) scale(0.100000,-0.100000)"
fill="#000000" stroke="none">
<path d="M985 4840 c-154 -154 -273 -280 -265 -280 8 0 140 126 295 280 154
154 273 280 265 280 -8 0 -141 -126 -295 -280z"/>
<path d="M2270 4845 c-151 -151 -268 -275 -260 -275 8 0 139 124 290 275 151
151 268 275 260 275 -8 0 -139 -124 -290 -275z"/>
<path d="M3550 4845 c-151 -151 -271 -278 -267 -282 4 -4 134 120 290 275 155
155 275 282 267 282 -8 0 -139 -124 -290 -275z"/>
<path d="M4810 4825 c-162 -162 -291 -298 -287 -302 8 -7 597 575 597 589 0 5
-3 8 -8 8 -4 0 -140 -133 -302 -295z"/>
<path d="M1003 3577 c-351 -350 -634 -640 -630 -644 4 -4 294 279 644 630 351
350 634 640 630 644 -4 4 -294 -279 -644 -630z"/>
<path d="M1643 2937 c-703 -702 -1274 -1280 -1270 -1284 4 -4 582 567 1284
1270 703 702 1274 1280 1270 1284 -4 4 -582 -567 -1284 -1270z"/>
<path d="M4570 2025 c-299 -299 -541 -548 -537 -552 10 -10 1091 1071 1086
1086 -2 6 -249 -234 -549 -534z"/>
<path d="M1370 1385 c-255 -255 -461 -468 -457 -472 10 -9 931 911 926 926 -2
6 -213 -198 -469 -454z"/>
<path d="M4470 645 c-355 -355 -638 -645 -630 -645 20 0 1284 1264 1279 1279
-2 6 -294 -279 -649 -634z"/>
<path d="M285 300 c-159 -159 -286 -293 -282 -297 8 -7 587 565 587 579 0 5
-3 8 -8 8 -4 0 -137 -130 -297 -290z"/>
<path d="M1540 275 c-151 -151 -268 -275 -260 -275 8 0 139 124 290 275 151
151 268 275 260 275 -8 0 -139 -124 -290 -275z"/>
<path d="M2820 275 c-151 -151 -268 -275 -260 -275 8 0 139 124 290 275 151
151 268 275 260 275 -8 0 -139 -124 -290 -275z"/>
</g>
</svg>
